#!OML:ASF F:\VICON\USERDATA\INSTALL\Justin_Nancy\Justin_Nancy.ASF
:FULLY-SPECIFIED
:DEGREES
80
root 0.41584 17.7778 -16.2864 -0.308732 -4.24889 -3.36001
lowerback 7.62427 -0.11728 0.75421
upperback 1.16781 0.0340233 3.93218
thorax -3.07077 0.0246628 3.64924
lowerneck -15.1406 -2.76424 -9.18587
upperneck 19.7932 -2.75486 5.31531
head 8.90112 -1.42714 3.00716
rclavicle 3.57812e-015 -1.19271e-014
rhumerus -30.1733 -12.2181 -77.9086
rradius 29.1505
rwrist 7.20366
rhand -13.3373 10.5412
rfingers 7.12502
rthumb 12.768 -19.0484
lclavicle 3.57812e-015 -1.19271e-014
lhumerus -31.2986 10.4088 85.8315
lradius 29.3179
lwrist -6.98552
lhand -16.0993 28.7044
lfingers 7.12502
lthumb 10.1044 418.442
rfemur -5.35518 2.5318 28.7517
rtibia 14.4237
rfoot -6.0066 -2.23862
rtoes 6.20344
lfemur -20.8707 4.05032 -16.5683
ltibia 65.4988
lfoot 1.29137 -0.895953
ltoes -6.245
81
root 0.407046 17.7649 -16.1523 -0.209956 -4.27547 -3.25212
lowerback 7.50361 -0.0340441 0.789608
upperback 1.19233 0.138199 3.77814
thorax -2.98347 0.0749309 3.45621
lowerneck -15.2322 -2.80984 -9.13735
upperneck 19.8536 -2.85539 5.459
head 8.94725 -1.4549 3.03697
rclavicle -6.31141e-015 2.46493e-014
rhumerus -29.7954 -12.1597 -78.1186
rradius 29.4911
rwrist 6.91503
rhand -13.2799 10.4803
rfingers 7.12502
rthumb 12.8234 -19.1058
lclavicle -6.31141e-015 2.46493e-014
lhumerus -31.4411 10.1996 85.7395
lradius 29.1075
lwrist -7.08849
lhand -16.7806 29.8248
lfingers 7.12502
lthumb 9.44708 419.593
rfemur -5.31471 2.54997 28.6584
rtibia 15.2056
rfoot -6.75436 -2.41648
rtoes 5.66009
lfemur -22.1014 3.9795 -16.757
ltibia 65.1564
lfoot 0.87871 -0.487187
ltoes -6.13217
82
root 0.392355 17.7307 -16.0352 -0.193144 -4.25203 -3.35829
lowerback 7.60412 0.0286188 0.970308
upperback 1.24936 0.234107 3.67931
thorax -2.98455 0.120112 3.24134
lowerneck -15.2472 -2.82473 -9.01712
upperneck 19.8219 -2.92524 5.55497
head 8.94345 -1.46766 3.04107
rclavicle -6.4605e-016 -7.95139e-016
rhumerus -29.1866 -12.2802 -78.3613
rradius 29.6927
rwrist 6.80832
rhand -13.1735 10.0212
rfingers 7.12502
rthumb 12.926 -19.5584
lclavicle -6.4605e-016 -7.95139e-016
lhumerus -31.5663 10.2682 85.3893
lradius 29.4591
lwrist -9.38581
lhand -13.5416 34.6763
lfingers 7.12502
lthumb 12.571 424.278
rfemur -5.17541 2.60578 28.8713
rtibia 15.9559
rfoot -7.45591 -2.66386
rtoes 3.82866
lfemur -23.1305 3.82532 -16.6214
ltibia 64.7868
lfoot -0.323801 -0.191825
ltoes -5.27097
83
root 0.379879 17.6963 -15.9222 -0.0853656 -4.14491 -3.56516
lowerback 7.69986 0.0367455 1.24258
upperback 1.30922 0.267478 3.6623
thorax -2.97632 0.133578 3.06643
lowerneck -15.49 -2.8757 -9.01231
upperneck 19.8219 -2.98773 5.61557
head 8.99371 -1.48659 3.05254
rclavicle -1.00883e-014 -2.8625e-014
rhumerus -28.3809 -12.2257 -78.5638
rradius 29.8458
rwrist 6.4707
rhand -12.996 10.0318
rfingers 7.12502
rthumb 13.097 -19.5369
lclavicle -1.00883e-014 -2.8625e-014
lhumerus -31.6286 9.60683 85.7066
lradius 29.1616
lwrist -6.89909
lhand -16.6404 30.3796
lfingers 7.12502
lthumb 9.58227 420.142
rfemur -5.17685 2.62047 29.181
rtibia 16.6641
rfoot -8.16926 -2.86494
rtoes 3.82236
lfemur -24.1769 3.59331 -16.3963
ltibia 64.274
lfoot -1.403 0.346681
ltoes -5.25651
84
root 0.372542 17.6817 -15.7892 0.106856 -4.14798 -3.78218
lowerback 7.53003 0.0549397 1.52714
upperback 1.35218 0.307689 3.69802
thorax -2.83765 0.150563 2.93781
lowerneck -15.7115 -2.96122 -9.03004
upperneck 19.7925 -3.06967 5.5699
head 9.03089 -1.52757 3.02787
rclavicle 1.2921e-015 -3.26007e-014
rhumerus -27.8118 -11.6265 -78.7957
rradius 30.3154
rwrist 5.80106
rhand -13.1661 9.88976
rfingers 7.12502
rthumb 12.9331 -19.6894
lclavicle 1.2921e-015 -3.26007e-014
lhumerus -31.6578 9.34215 85.8919
lradius 28.9415
lwrist -6.30637
lhand -16.8299 27.7873
lfingers 7.12502
lthumb 9.39948 417.558
rfemur -5.23028 2.43743 29.4294
rtibia 17.3109
rfoot -8.8932 -2.7915
rtoes 5.4029
lfemur -25.168 3.34182 -16.2086
ltibia 63.5235
lfoot -2.37364 1.13044
ltoes -4.95099
85
root 0.367598 17.6679 -15.6462 0.0929005 -4.54974 -3.94396
lowerback 7.55372 0.17872 1.72039
upperback 1.30665 0.490981 3.71247
thorax -2.90389 0.240169 2.82592
lowerneck -15.5319 -2.95199 -8.91145
upperneck 19.8105 -3.06878 5.41216
head 8.99986 -1.53773 2.95447
rclavicle 1.69961e-014 -3.18055e-015
rhumerus -27.758 -10.8987 -78.9437
rradius 30.9599
rwrist 5.22545
rhand -13.3125 9.95504
rfingers 7.12502
rthumb 12.7919 -19.6331
lclavicle 1.69961e-014 -3.18055e-015
lhumerus -31.9966 9.65926 85.7419
lradius 28.8097
lwrist -7.49111
lhand -15.5921 28.6453
lfingers 7.12502
lthumb 10.5936 418.358
rfemur -4.89912 2.68409 29.6241
rtibia 17.7485
rfoot -9.50338 -2.83735
rtoes 6.343
lfemur -25.7779 3.39984 -16.049
ltibia 62.5866
lfoot -3.10257 2.05823
ltoes -3.1918
